<svg xmlns="http://www.w3.org/2000/svg" viewBox="0 0 292.957 281.077">
  <defs>
    <style>
      .cls-1 {
        fill: #88a5a0;
      }

      .cls-2 {
        fill: #718987;
      }

      .cls-3 {
        fill: #f96982;
      }

      .cls-4 {
        fill: #ed3565;
      }

      .cls-5 {
        fill: #b0d1cf;
      }

      .cls-6 {
        fill: #14c4bb;
      }

      .cls-7 {
        fill: #ff6a66;
      }

      .cls-8 {
        fill: #ff433e;
      }

      .cls-9 {
        fill: #d61e00;
      }

      .cls-10 {
        fill: #ffa28d;
      }

      .cls-11 {
        fill: #7eaef2;
      }

      .cls-12 {
        fill: #2358c1;
      }
    </style>
  </defs>
  <g id="Group_35" data-name="Group 35" transform="translate(-820 -1402.316)">
    <g id="_002-local-network" data-name="002-local-network" transform="translate(891.262 1447.783)">
      <path id="Path_189" data-name="Path 189" class="cls-1" d="M387.929,486.812h-60.4a2.549,2.549,0,0,1-1.547-4.576,32.988,32.988,0,0,0,9.859-12.4,41,41,0,0,0,3.826-15.079h36.128a40.984,40.984,0,0,0,3.826,15.079,32.988,32.988,0,0,0,9.859,12.4A2.55,2.55,0,0,1,387.929,486.812Z" transform="translate(-210.29 -251.202)"/>
      <path id="Path_190" data-name="Path 190" class="cls-2" d="M387.742,469.837H343.964a41,41,0,0,0,3.826-15.079h36.128A40.976,40.976,0,0,0,387.742,469.837Z" transform="translate(-218.416 -251.202)"/>
      <path id="Path_191" data-name="Path 191" class="cls-3" d="M400.953,273.957v87.581H252.439V273.957a11.987,11.987,0,0,1,11.986-11.992H388.968A11.986,11.986,0,0,1,400.953,273.957Z" transform="translate(-179.26 -168.721)"/>
      <rect id="Rectangle_31" data-name="Rectangle 31" class="cls-4" width="148.516" height="11.1" transform="translate(73.18 181.717)"/>
      <path id="Path_192" data-name="Path 192" class="cls-5" d="M395.651,451.261H257.743a5.3,5.3,0,0,1-5.3-5.3V432.166H400.955v13.791A5.3,5.3,0,0,1,395.651,451.261Z" transform="translate(-179.26 -241.537)"/>
      <g id="Group_31" data-name="Group 31" transform="translate(121.127 139.644)">
        <path id="Path_193" data-name="Path 193" class="cls-6" d="M340.659,352.852a4.42,4.42,0,0,1-4.421-4.421v-.952a4.421,4.421,0,0,1,8.841,0v.952A4.421,4.421,0,0,1,340.659,352.852Z" transform="translate(-336.238 -343.059)"/>
        <path id="Path_194" data-name="Path 194" class="cls-6" d="M378.914,352.852a4.42,4.42,0,0,1-4.421-4.421v-.952a4.421,4.421,0,0,1,8.841,0v.952A4.42,4.42,0,0,1,378.914,352.852Z" transform="translate(-352.604 -343.059)"/>
        <path id="Path_195" data-name="Path 195" class="cls-6" d="M417.17,352.852a4.42,4.42,0,0,1-4.421-4.421v-.952a4.421,4.421,0,0,1,8.841,0v.952A4.421,4.421,0,0,1,417.17,352.852Z" transform="translate(-368.971 -343.059)"/>
      </g>
      <g id="Group_32" data-name="Group 32" transform="translate(0 0)">
        <path id="Path_196" data-name="Path 196" class="cls-5" d="M298.953,107.842h-7.214a4.421,4.421,0,1,1,0-8.841h7.214a4.421,4.421,0,1,1,0,8.841Z" transform="translate(-194.182 -99.001)"/>
        <path id="Path_197" data-name="Path 197" class="cls-5" d="M336.237,107.842h-7.214a4.421,4.421,0,1,1,0-8.841h7.214a4.421,4.421,0,1,1,0,8.841Z" transform="translate(-210.132 -99.001)"/>
        <path id="Path_198" data-name="Path 198" class="cls-5" d="M373.52,107.842h-7.214a4.421,4.421,0,1,1,0-8.841h7.214a4.421,4.421,0,1,1,0,8.841Z" transform="translate(-226.083 -99.001)"/>
        <path id="Path_199" data-name="Path 199" class="cls-5" d="M378.914,139a4.42,4.42,0,0,1-4.421-4.421v-7.213a4.421,4.421,0,0,1,8.841,0v7.213A4.42,4.42,0,0,1,378.914,139Z" transform="translate(-231.477 -109.244)"/>
        <path id="Path_200" data-name="Path 200" class="cls-5" d="M378.914,177.953a4.42,4.42,0,0,1-4.421-4.421v-7.214a4.421,4.421,0,0,1,8.841,0v7.214A4.42,4.42,0,0,1,378.914,177.953Z" transform="translate(-231.477 -125.91)"/>
        <path id="Path_201" data-name="Path 201" class="cls-5" d="M378.914,216.909a4.42,4.42,0,0,1-4.421-4.421v-7.213a4.421,4.421,0,0,1,8.841,0v7.213A4.42,4.42,0,0,1,378.914,216.909Z" transform="translate(-231.477 -142.576)"/>
        <path id="Path_202" data-name="Path 202" class="cls-5" d="M210.746,409.13h-7.214a4.421,4.421,0,1,1,0-8.841h7.214a4.421,4.421,0,1,1,0,8.841Z" transform="translate(-156.446 -227.899)"/>
        <path id="Path_203" data-name="Path 203" class="cls-5" d="M173.462,409.13h-7.213a4.421,4.421,0,1,1,0-8.841h7.213a4.421,4.421,0,1,1,0,8.841Z" transform="translate(-140.495 -227.899)"/>
        <path id="Path_204" data-name="Path 204" class="cls-5" d="M136.178,409.13h-7.213a4.421,4.421,0,1,1,0-8.841h7.213a4.421,4.421,0,1,1,0,8.841Z" transform="translate(-124.544 -227.899)"/>
        <path id="Path_205" data-name="Path 205" class="cls-5" d="M128.965,379.794a4.421,4.421,0,0,1-4.421-4.421V368.16a4.421,4.421,0,0,1,8.841,0v7.213A4.421,4.421,0,0,1,128.965,379.794Z" transform="translate(-124.544 -212.262)"/>
        <path id="Path_206" data-name="Path 206" class="cls-5" d="M128.965,340.839a4.421,4.421,0,0,1-4.421-4.421V329.2a4.421,4.421,0,0,1,8.841,0v7.213A4.421,4.421,0,0,1,128.965,340.839Z" transform="translate(-124.544 -195.596)"/>
        <path id="Path_207" data-name="Path 207" class="cls-5" d="M128.965,301.883a4.421,4.421,0,0,1-4.421-4.421v-7.213a4.421,4.421,0,0,1,8.841,0v7.213A4.421,4.421,0,0,1,128.965,301.883Z" transform="translate(-124.544 -178.93)"/>
      </g>
    </g>
    <g id="_012-cloud-1" data-name="012-cloud-1" transform="translate(820 1402.316)">
      <path id="Path_208" data-name="Path 208" class="cls-7" d="M231.907,97.812v76.21c0,5.942-5.963,11.358-15.73,15.418-9.815,4.084-23.468,6.8-38.778,7.318q-2.668.1-5.4.094c-33.091,0-59.911-10.221-59.911-22.83V97.812Z" transform="translate(-78.507 -74.98)"/>
      <g id="Group_33" data-name="Group 33" transform="translate(33.58 22.83)">
        <path id="Path_209" data-name="Path 209" class="cls-8" d="M216.178,288.609c-9.815,4.084-23.468,6.8-38.778,7.318q-2.668.1-5.4.094c-33.091,0-59.911-10.221-59.911-22.83V260.83a51.928,51.928,0,0,1,93.572,24.243c.238.007.473.02.708.037A19.865,19.865,0,0,1,216.178,288.609Z" transform="translate(-112.086 -196.98)"/>
        <path id="Path_210" data-name="Path 210" class="cls-8" d="M231.9,97.807v10.8c-3.483,3.738-8.842,7.049-15.874,9.731-11.838,4.51-27.477,6.993-44.036,6.993s-32.2-2.483-44.036-6.993c-7.033-2.681-12.391-5.989-15.871-9.727v-10.8Z" transform="translate(-112.084 -97.807)"/>
        <path id="Path_211" data-name="Path 211" class="cls-8" d="M231.9,233.859v35.449c0,5.942-5.963,11.355-15.73,15.418-.02.01-.044.017-.064.027-9.808,4.063-23.434,6.768-38.715,7.288q-2.668.1-5.4.094c-32.96,0-59.706-10.143-59.911-22.682V233.859c0,4.684,3.7,9.039,10.056,12.663,10.74,6.13,29.061,10.167,49.854,10.167h.369A147.91,147.91,0,0,0,194.644,255C216.5,251.6,231.9,243.412,231.9,233.859Z" transform="translate(-112.078 -193.097)"/>
      </g>
      <g id="Group_34" data-name="Group 34" transform="translate(33.579 63.591)">
        <path id="Path_212" data-name="Path 212" class="cls-9" d="M216.169,314.33c-.02.01-.044.017-.064.027-9.808,4.063-23.434,6.768-38.715,7.288q-2.668.1-5.4.094c-32.96,0-59.706-10.143-59.911-22.682,0-.05,0-.1,0-.144V286.551a51.875,51.875,0,0,1,9.12-9.677c.309-.252.621-.5.933-.748,10.74,6.13,29.061,10.167,49.854,10.167h.369a147.912,147.912,0,0,0,22.287-1.691,51.393,51.393,0,0,1,11.009,26.192c.238.007.473.02.708.037A19.865,19.865,0,0,1,216.169,314.33Z" transform="translate(-112.077 -263.461)"/>
        <path id="Path_213" data-name="Path 213" class="cls-9" d="M231.9,233.854v11.23c-3.459,3.771-8.842,7.113-15.935,9.818-11.818,4.5-27.437,6.982-43.976,6.982s-32.158-2.48-43.976-6.982c-7.093-2.7-12.475-6.046-15.935-9.818v-11.23c0,12.609,26.823,22.83,59.911,22.83S231.9,246.463,231.9,233.854Z" transform="translate(-112.076 -233.854)"/>
      </g>
      <ellipse id="Ellipse_12" data-name="Ellipse 12" class="cls-10" cx="59.91" cy="22.827" rx="59.91" ry="22.827" transform="translate(33.58 0)"/>
      <path id="Path_214" data-name="Path 214" class="cls-11" d="M132.384,326.368H9.621a9.5,9.5,0,0,1-9.442-8.292A22.932,22.932,0,0,1,29.727,293.33a46.9,46.9,0,0,1,92.762,9.034,15.579,15.579,0,0,1,5.024-.467c7.161.492,13.727,6.918,14.35,14.07.006.069.013.14.019.212A9.511,9.511,0,0,1,132.384,326.368Z" transform="translate(0 -185.916)"/>
      <path id="Path_215" data-name="Path 215" class="cls-12" d="M200.7,362.082a2.316,2.316,0,0,1-1.638-.678l-10.675-10.675a2.315,2.315,0,1,1,3.274-3.274l6.723,6.724V336.559a2.315,2.315,0,0,1,4.63,0v23.208a2.316,2.316,0,0,1-2.314,2.315Z" transform="translate(-131.467 -240.575)"/>
      <path id="Path_216" data-name="Path 216" class="cls-7" d="M259.6,362.081a2.315,2.315,0,0,1-2.315-2.315V336.559a2.315,2.315,0,0,1,3.952-1.637L271.911,345.6a2.315,2.315,0,1,1-3.274,3.274l-6.724-6.724v17.619A2.315,2.315,0,0,1,259.6,362.081Z" transform="translate(-180.199 -240.575)"/>
    </g>
  </g>
</svg>
