<svg xmlns="http://www.w3.org/2000/svg" viewBox="0 0 320.342 282.105">
  <defs>
    <style>
      .cls-1 {
        fill: #14c4bb;
      }

      .cls-2 {
        fill: #5089dd;
      }

      .cls-3 {
        fill: #2358c1;
      }

      .cls-4 {
        fill: #ff433e;
      }

      .cls-5 {
        fill: #88a5a0;
      }

      .cls-6 {
        fill: #dcf9f7;
      }

      .cls-7 {
        fill: #ffd9ab;
      }

      .cls-8 {
        fill: #ff6a66;
      }

      .cls-9 {
        fill: #f9b767;
      }

      .cls-10 {
        fill: #ef9d45;
      }
    </style>
  </defs>
  <g id="_035-best" data-name="035-best" transform="translate(0 -30.557)">
    <path id="Path_149" data-name="Path 149" class="cls-1" d="M98.045,294.7H6.162A6.162,6.162,0,0,1,0,288.541V36.722A6.162,6.162,0,0,1,6.162,30.56H98.044a6.161,6.161,0,0,1,6.162,6.162v251.82A6.161,6.161,0,0,1,98.045,294.7Z" transform="translate(0 -0.001)"/>
    <path id="Path_150" data-name="Path 150" class="cls-2" d="M385.589,36.72V84.707a6.148,6.148,0,0,1-6.156,6.164H221.872a6.162,6.162,0,0,1-6.163-6.163V36.72a6.162,6.162,0,0,1,6.163-6.163h157.56A6.16,6.16,0,0,1,385.589,36.72Z" transform="translate(-80.747)"/>
    <path id="Path_151" data-name="Path 151" class="cls-3" d="M427.582,117.114a6.154,6.154,0,0,1-2.481.519H337.708a73.558,73.558,0,0,1,89.874-.519Z" transform="translate(-126.415 -26.762)"/>
    <g id="Group_25" data-name="Group 25" transform="translate(133.582 220.433)">
      <path id="Path_152" data-name="Path 152" class="cls-4" d="M281.61,408.3H219.665a6.161,6.161,0,0,1-6.162-6.162V340.2a6.162,6.162,0,0,1,6.162-6.162H281.61a6.162,6.162,0,0,1,6.162,6.162v61.946A6.162,6.162,0,0,1,281.61,408.3Z" transform="translate(-213.503 -334.034)"/>
      <path id="Path_153" data-name="Path 153" class="cls-4" d="M436.634,408.3H374.689a6.161,6.161,0,0,1-6.162-6.162V340.2a6.162,6.162,0,0,1,6.162-6.162h61.946A6.162,6.162,0,0,1,442.8,340.2v61.946A6.162,6.162,0,0,1,436.634,408.3Z" transform="translate(-271.533 -334.034)"/>
    </g>
    <g id="Group_26" data-name="Group 26" transform="translate(130.129 111.86)">
      <path id="Path_154" data-name="Path 154" class="cls-5" d="M378.053,170.17H212.818a4.834,4.834,0,0,1,0-9.668H378.053a4.834,4.834,0,1,1,0,9.668Z" transform="translate(-207.984 -160.502)"/>
      <path id="Path_155" data-name="Path 155" class="cls-5" d="M378.053,212.2H212.818a4.834,4.834,0,0,1,0-9.668H378.053a4.834,4.834,0,1,1,0,9.668Z" transform="translate(-207.984 -176.234)"/>
      <path id="Path_156" data-name="Path 156" class="cls-5" d="M378.053,254.226H212.818a4.834,4.834,0,0,1,0-9.668H378.053a4.834,4.834,0,0,1,0,9.668Z" transform="translate(-207.984 -191.967)"/>
      <path id="Path_157" data-name="Path 157" class="cls-5" d="M355.954,286.586H213.02a4.968,4.968,0,0,0-5.035,4.686,4.834,4.834,0,0,0,4.832,4.983H355.861a4.777,4.777,0,0,0,3.309-1.326l.092-.088A4.791,4.791,0,0,0,355.954,286.586Z" transform="translate(-207.983 -207.699)"/>
    </g>
    <g id="Group_27" data-name="Group 27" transform="translate(190.918 56.099)">
      <path id="Path_158" data-name="Path 158" class="cls-6" d="M309.976,81.8a4.833,4.833,0,0,1-4.834-4.834v-.748a4.834,4.834,0,0,1,9.668,0v.748A4.833,4.833,0,0,1,309.976,81.8Z" transform="translate(-305.142 -71.381)"/>
      <path id="Path_159" data-name="Path 159" class="cls-6" d="M348.578,81.8a4.833,4.833,0,0,1-4.834-4.834v-.748a4.834,4.834,0,0,1,9.668,0v.748A4.834,4.834,0,0,1,348.578,81.8Z" transform="translate(-319.592 -71.381)"/>
      <path id="Path_160" data-name="Path 160" class="cls-6" d="M387.179,81.8a4.833,4.833,0,0,1-4.834-4.834v-.748a4.834,4.834,0,0,1,9.668,0v.748A4.834,4.834,0,0,1,387.179,81.8Z" transform="translate(-334.042 -71.381)"/>
    </g>
    <g id="Group_28" data-name="Group 28" transform="translate(22.364 57.04)">
      <path id="Path_161" data-name="Path 161" class="cls-7" d="M49.722,91.7A4.82,4.82,0,0,1,46.3,90.282L37.16,81.138A4.834,4.834,0,0,1,44,74.3l9.144,9.144A4.835,4.835,0,0,1,49.722,91.7Z" transform="translate(-35.743 -72.885)"/>
      <path id="Path_162" data-name="Path 162" class="cls-7" d="M49.722,130.737a4.82,4.82,0,0,1-3.418-1.416l-9.144-9.144A4.834,4.834,0,1,1,44,113.34l9.144,9.144a4.834,4.834,0,0,1-3.419,8.253Z" transform="translate(-35.743 -87.499)"/>
      <path id="Path_163" data-name="Path 163" class="cls-7" d="M49.722,169.775a4.817,4.817,0,0,1-3.418-1.416l-9.144-9.145A4.834,4.834,0,1,1,44,152.378l9.144,9.145a4.834,4.834,0,0,1-3.419,8.253Z" transform="translate(-35.743 -102.112)"/>
      <path id="Path_164" data-name="Path 164" class="cls-7" d="M87.052,415.966H40.578a4.834,4.834,0,0,1,0-9.668H87.053a4.834,4.834,0,1,1,0,9.668Z" transform="translate(-35.744 -197.692)"/>
    </g>
    <path id="Path_165" data-name="Path 165" class="cls-8" d="M423.437,254.188V392.023a4.343,4.343,0,0,1-7.135,3.326L390.159,373.4,364.016,395.35a4.343,4.343,0,0,1-7.135-3.326V254.188Z" transform="translate(-133.592 -83.712)"/>
    <path id="Path_166" data-name="Path 166" class="cls-4" d="M423.437,254.188v44.318a73.642,73.642,0,0,1-66.556,0V254.188Z" transform="translate(-133.592 -83.712)"/>
    <circle id="Ellipse_10" data-name="Ellipse 10" class="cls-9" cx="63.774" cy="63.774" r="63.774" transform="translate(192.794 85.242)"/>
    <circle id="Ellipse_11" data-name="Ellipse 11" class="cls-7" cx="43.24" cy="43.24" r="43.24" transform="translate(213.328 105.777)"/>
    <path id="Path_167" data-name="Path 167" class="cls-10" d="M410.292,220.254h-3.8V176.906a4.834,4.834,0,0,0-8.253-3.418l-9.224,9.224a4.834,4.834,0,1,0,6.836,6.837l.972-.972v31.677h-3.661a4.834,4.834,0,1,0,0,9.668h17.13a4.834,4.834,0,1,0,0-9.668Z" transform="translate(-145.091 -52.974)"/>
    <path id="Path_168" data-name="Path 168" class="cls-7" d="M81.729,346.374H78.641V303.027a4.834,4.834,0,0,0-8.253-3.418l-9.224,9.224A4.834,4.834,0,0,0,68,315.67l.972-.972v31.677H65.311a4.834,4.834,0,0,0,0,9.668H81.73a4.834,4.834,0,1,0,0-9.668Z" transform="translate(-22.365 -100.184)"/>
  </g>
</svg>
