<svg xmlns="http://www.w3.org/2000/svg" xmlns:xlink="http://www.w3.org/1999/xlink" viewBox="0 0 912.592 457.671">
  <defs>
    <style>
      .cls-1, .cls-10, .cls-11, .cls-17, .cls-2, .cls-8, .cls-9 {
        opacity: 0.5;
      }

      .cls-1 {
        fill: url(#linear-gradient);
      }

      .cls-2 {
        fill: url(#linear-gradient-2);
      }

      .cls-3 {
        fill: #eff2f7;
      }

      .cls-4 {
        fill: #5bb59b;
      }

      .cls-5 {
        fill: #fff;
      }

      .cls-38, .cls-6 {
        fill: #524f63;
      }

      .cls-7 {
        fill: #63a590;
      }

      .cls-8 {
        fill: url(#linear-gradient-3);
      }

      .cls-9 {
        fill: url(#linear-gradient-4);
      }

      .cls-10 {
        fill: url(#linear-gradient-6);
      }

      .cls-11 {
        fill: url(#linear-gradient-7);
      }

      .cls-12 {
        fill: #e0e4ed;
      }

      .cls-13 {
        fill: #424051;
      }

      .cls-14 {
        fill: #eebcc5;
      }

      .cls-15 {
        fill: #9092ec;
      }

      .cls-16 {
        fill: #ead18c;
      }

      .cls-17 {
        fill: url(#linear-gradient-8);
      }

      .cls-18 {
        fill: #91616a;
      }

      .cls-19 {
        fill: #5b61d3;
      }

      .cls-20 {
        fill: #8385e6;
      }

      .cls-21 {
        fill: url(#linear-gradient-9);
      }

      .cls-22 {
        fill: url(#linear-gradient-10);
      }

      .cls-23, .cls-27 {
        fill: #4a4549;
      }

      .cls-24 {
        fill: url(#linear-gradient-11);
      }

      .cls-25 {
        fill: #d98e9d;
      }

      .cls-26 {
        fill: url(#linear-gradient-12);
      }

      .cls-27 {
        opacity: 0.7;
      }

      .cls-28, .cls-33 {
        fill: rgba(0,0,0,0);
      }

      .cls-28, .cls-33, .cls-34 {
        stroke-miterlimit: 10;
      }

      .cls-29 {
        fill: #75454f;
      }

      .cls-30 {
        fill: #8284e5;
      }

      .cls-31 {
        fill: #37354c;
      }

      .cls-32 {
        fill: url(#linear-gradient-13);
      }

      .cls-33, .cls-34 {
        stroke: #524f63;
      }

      .cls-34 {
        fill: none;
      }

      .cls-35 {
        fill: #bcbace;
      }

      .cls-36 {
        fill: url(#linear-gradient-14);
      }

      .cls-37, .cls-38 {
        stroke: none;
      }
    </style>
    <linearGradient id="linear-gradient" x1="1.059" y1="-2.168" x2="-0.576" y2="5.634" gradientUnits="objectBoundingBox">
      <stop offset="0" stop-color="#4a50c2" stop-opacity="0.02"/>
      <stop offset="1" stop-color="#444bcc" stop-opacity="0.639"/>
    </linearGradient>
    <linearGradient id="linear-gradient-2" x1="1.059" y1="-2.168" x2="-0.576" y2="5.634" xlink:href="#linear-gradient"/>
    <linearGradient id="linear-gradient-3" x1="1.059" y1="-2.394" x2="-0.575" y2="6.068" xlink:href="#linear-gradient"/>
    <linearGradient id="linear-gradient-4" x1="1.059" y1="-2.394" x2="-0.575" y2="6.068" xlink:href="#linear-gradient"/>
    <linearGradient id="linear-gradient-6" x1="1.059" y1="-2.393" x2="-0.575" y2="6.068" xlink:href="#linear-gradient"/>
    <linearGradient id="linear-gradient-7" x1="1.062" y1="-1.24" x2="-0.582" y2="3.848" xlink:href="#linear-gradient"/>
    <linearGradient id="linear-gradient-8" y1="0.5" x2="1" y2="0.5" gradientUnits="objectBoundingBox">
      <stop offset="0" stop-color="#ead18c" stop-opacity="0"/>
      <stop offset="1" stop-color="#524f63" stop-opacity="0.702"/>
    </linearGradient>
    <linearGradient id="linear-gradient-9" y1="0.5" x2="1" y2="0.5" gradientUnits="objectBoundingBox">
      <stop offset="0" stop-color="#484ec2" stop-opacity="0"/>
      <stop offset="1" stop-color="#444bcc" stop-opacity="0.502"/>
    </linearGradient>
    <linearGradient id="linear-gradient-10" x1="-1.061" y1="0.879" x2="2.718" y2="0.177" xlink:href="#linear-gradient-8"/>
    <linearGradient id="linear-gradient-11" x1="0.194" y1="1.477" x2="0.716" y2="-0.379" xlink:href="#linear-gradient-9"/>
    <linearGradient id="linear-gradient-12" y1="0.5" x2="1" y2="0.5" gradientUnits="objectBoundingBox">
      <stop offset="0" stop-color="#b6567a" stop-opacity="0"/>
      <stop offset="1" stop-color="#c45771"/>
    </linearGradient>
    <linearGradient id="linear-gradient-13" x1="0.311" y1="1.144" x2="0.883" y2="-0.139" xlink:href="#linear-gradient-9"/>
    <linearGradient id="linear-gradient-14" x1="0.495" y1="0.764" x2="0.565" y2="-2.765" gradientUnits="objectBoundingBox">
      <stop offset="0" stop-color="#676475" stop-opacity="0"/>
      <stop offset="1" stop-color="#524f63" stop-opacity="0.702"/>
    </linearGradient>
  </defs>
  <g id="Group_53" data-name="Group 53" transform="translate(-513.43 -473)">
    <path id="Path_1" data-name="Path 1" class="cls-1" d="M129.905,369.074c0,3.363-19.517,6.09-43.594,6.09s-43.594-2.726-43.594-6.09,19.519-6.09,43.594-6.09S129.905,365.71,129.905,369.074Z" transform="translate(494.276 520.325)"/>
    <path id="Path_2" data-name="Path 2" class="cls-2" d="M513.994,370.006c0,3.363-19.517,6.09-43.594,6.09s-43.594-2.727-43.594-6.09,19.517-6.09,43.594-6.09S513.994,366.642,513.994,370.006Z" transform="translate(912.027 521.338)"/>
    <path id="Path_3" data-name="Path 3" class="cls-3" d="M616.74,190.388H578.213v73.829H530.729v20.862H491.993V172.767H445.437V312.391H400.774V190.649H365.786V291.04h-8.747V270.177H311.61V311.9H294.561V166.442H255.825V285.079h-.071v97.058H616.74Z" transform="translate(725.984 306.558)"/>
    <path id="Path_4" data-name="Path 4" class="cls-3" d="M429.364,190.388H398.622v73.829H351.138v20.862H312.4V172.767H265.845V312.391H221.183V190.649H186.194V291.04h-8.747V270.177H132.019V311.9h-17.05V166.442H68.378V382.137H429.364Z" transform="translate(522.186 306.558)"/>
    <path id="Path_5" data-name="Path 5" class="cls-4" d="M49.6,275.54s-13.53,59.752,7.891,100.34l21.421,40.586S84.545,315,49.6,275.54Z" transform="translate(497.174 425.217)"/>
    <path id="Path_6" data-name="Path 6" class="cls-5" d="M48.263,363.811c1.3,7.328,2.969,14.72,6.595,21.219s9.484,12.077,16.718,13.829a38.325,38.325,0,0,0,10.067.691c3.7-.1,7.568-.332,10.76-2.211,4.156-2.451,6.338-7.175,8.027-11.7a136.5,136.5,0,0,0,6.474-23.59c.833-4.639,1.374-9.668-.793-13.856-2.933-5.67-9.808-7.952-16.11-8.981-10.472-1.708-24.891-2.58-34.926,1.683C46.313,344.62,46.841,355.811,48.263,363.811Z" transform="translate(499.421 492.941)"/>
    <path id="Path_7" data-name="Path 7" class="cls-6" d="M68,347.236c8.309.484,17.315-.789,22.547-3.607,1.046-.564,1.977-1.286,1.482-1.975-.585-.816-2.8-1.152-4.726-1.351-9.989-1.031-21.052-1.5-30.83.161C42.145,342.894,60.395,346.789,68,347.236Z" transform="translate(503.437 494.643)"/>
    <path id="Path_8" data-name="Path 8" class="cls-7" d="M57.872,268.519S51.106,382.389,66.891,424.1C66.891,424.1,77.037,322.635,57.872,268.519Z" transform="translate(509.192 417.581)"/>
    <path id="Path_9" data-name="Path 9" class="cls-4" d="M62.95,410.189h3.662C72,387.646,88.118,314.627,79.6,280.548c0,0-27.058,95.831-20.292,117.252C60.958,403.418,62.123,407.381,62.95,410.189Z" transform="translate(511.139 430.664)"/>
    <path id="Path_10" data-name="Path 10" class="cls-4" d="M434.6,277.4s-13.53,59.755,7.891,100.34l21.421,40.588S469.551,316.865,434.6,277.4Z" transform="translate(915.922 427.244)"/>
    <path id="Path_11" data-name="Path 11" class="cls-5" d="M433.269,365.677c1.3,7.328,2.969,14.718,6.595,21.217s9.484,12.077,16.718,13.829a38.328,38.328,0,0,0,10.067.693c3.7-.1,7.568-.334,10.76-2.213,4.156-2.449,6.338-7.175,8.027-11.7a136.615,136.615,0,0,0,6.474-23.59c.833-4.641,1.374-9.67-.793-13.856-2.933-5.672-9.808-7.954-16.11-8.981-10.472-1.708-24.891-2.582-34.926,1.683C431.319,346.485,431.847,357.677,433.269,365.677Z" transform="translate(918.17 494.969)"/>
    <path id="Path_12" data-name="Path 12" class="cls-6" d="M453,349.1c8.309.486,17.315-.787,22.547-3.605,1.046-.564,1.977-1.288,1.482-1.977-.585-.816-2.8-1.15-4.726-1.351-9.989-1.031-21.052-1.5-30.83.163C427.151,344.758,445.4,348.655,453,349.1Z" transform="translate(922.186 496.671)"/>
    <path id="Path_13" data-name="Path 13" class="cls-7" d="M442.878,270.384s-6.766,113.868,9.019,155.584C451.9,425.968,462.043,324.5,442.878,270.384Z" transform="translate(927.94 419.609)"/>
    <path id="Path_14" data-name="Path 14" class="cls-4" d="M447.956,412.051h3.662c5.39-22.542,21.509-95.56,12.987-129.638,0,0-27.058,95.829-20.292,117.25C445.964,405.281,447.129,409.243,447.956,412.051Z" transform="translate(929.887 432.692)"/>
    <ellipse id="Ellipse_1" data-name="Ellipse 1" class="cls-8" cx="98.28" cy="12.65" rx="98.28" ry="12.65" transform="translate(550.648 895.635)"/>
    <path id="Path_15" data-name="Path 15" class="cls-9" d="M559.043,386.2c0,6.987-44,12.649-98.28,12.649s-98.28-5.662-98.28-12.649,44-12.649,98.28-12.649S559.043,379.214,559.043,386.2Z" transform="translate(842.067 531.817)"/>
    <ellipse id="Ellipse_2" data-name="Ellipse 2" class="cls-8" cx="98.28" cy="12.65" rx="98.28" ry="12.65" transform="translate(776.4 892.715)"/>
    <path id="Path_16" data-name="Path 16" class="cls-10" d="M477.94,378.276c0,6.985-44,12.649-98.28,12.649s-98.28-5.664-98.28-12.649,44-12.651,98.28-12.651S477.94,371.289,477.94,378.276Z" transform="translate(753.856 523.197)"/>
    <ellipse id="Ellipse_3" data-name="Ellipse 3" class="cls-11" cx="58.707" cy="12.65" rx="58.707" ry="12.65" transform="translate(919.964 867.655)"/>
    <path id="Path_17" data-name="Path 17" class="cls-12" d="M104.736,222.766l37.081,6.014-17.643-16.11,8.434-9.407,32.07,28.684a7.42,7.42,0,0,1-5.142,12.532l-44.93,1.4Z" transform="translate(561.731 346.605)"/>
    <path id="Path_18" data-name="Path 18" class="cls-6" d="M142.871,260.412l-.738,242.06-12.736.91-8.843-205.362-11.826.91L96.648,501.562l-12.736-.91L85.519,256.03Z" transform="translate(539.081 403.997)"/>
    <path id="Path_19" data-name="Path 19" class="cls-12" d="M133.068,213.55l-42.826-1.8a14.358,14.358,0,0,0-11.555,5.063L91.2,314.872l58.531,1.18-5.344-89.883S134.625,213.617,133.068,213.55Z" transform="translate(533.399 355.821)"/>
    <path id="Path_20" data-name="Path 20" class="cls-5" d="M117.039,207.423c-2.353,1.864-5.346,3.595-5.818,6.559-.409,2.566,1.48,5.121,3.906,6.05a10.051,10.051,0,0,0,7.572-.578,13.027,13.027,0,0,0,7.674-9.3c.518-3.025-.833-8.841-4.344-9.9C122.043,199.054,119.925,205.133,117.039,207.423Z" transform="translate(568.723 343.166)"/>
    <path id="Path_21" data-name="Path 21" class="cls-13" d="M96.822,373.207l-24.781,7.4.909,2.121L109,378.79l.556-4.674Z" transform="translate(526.17 531.443)"/>
    <path id="Path_22" data-name="Path 22" class="cls-14" d="M60.893,232.207l-3.929-6.678,4.321-9.035s2.357-6.286,2.357-8.25-1.964-4.712-3.929-1.177a73.6,73.6,0,0,1-3.929,6.286L44.137,196.068a1.781,1.781,0,0,0-1.478-.787h0a1.782,1.782,0,0,0-1.57,2.624l2.666,4.96a1.781,1.781,0,0,1-2.578,2.311l-.537-.367a6.527,6.527,0,0,0-9.01,1.582l-.2.282.2,5.877a13.094,13.094,0,0,0,4.777,9.691c6.877,5.645,19.1,15.526,19.382,14.68C56.179,235.742,60.893,232.207,60.893,232.207Z" transform="translate(482 337.924)"/>
    <path id="Path_23" data-name="Path 23" class="cls-14" d="M112.089,195.257a3.884,3.884,0,0,0-4.712,1.459,5.847,5.847,0,0,0-.449,5.167,7.514,7.514,0,0,0,7.862,4.9,6.651,6.651,0,0,0,5.505-7.175,6.982,6.982,0,0,0-4.411-5.269,9.411,9.411,0,0,0-7.017.276" transform="translate(563.689 336.297)"/>
    <path id="Path_24" data-name="Path 24" class="cls-14" d="M110.94,196.271l19.269,15.142s.459,8.259-4.129,9.175c-1.376.919-19.269-17.893-19.269-17.893Z" transform="translate(563.988 339.001)"/>
    <path id="Path_25" data-name="Path 25" class="cls-13" d="M105.7,374.988l.624,4.067,31.206,5.15s1.516-2.424.605-2.726-19.7-7.4-19.7-7.4Z" transform="translate(562.779 532.391)"/>
    <path id="Path_26" data-name="Path 26" class="cls-14" d="M91.113,202.684l.983,26.682a6.292,6.292,0,0,0,5.311,6.215h0a6.292,6.292,0,0,0,7.221-5.388l1.353-23.073Z" transform="translate(546.914 345.976)"/>
    <g id="Group_5" data-name="Group 5" transform="translate(658.74 523.963)">
      <rect id="Rectangle_4" data-name="Rectangle 4" class="cls-6" width="13.763" height="29.015" transform="translate(5.306 0) rotate(10.538)"/>
      <rect id="Rectangle_5" data-name="Rectangle 5" class="cls-6" width="12.237" height="29.015" transform="translate(5.306) rotate(10.537)"/>
    </g>
    <path id="Path_27" data-name="Path 27" class="cls-5" d="M91.463,214.9s-1.952,1.672-2.092,2.23S96.9,229.681,96.9,229.681l5.159-8.229,6.415,8.229,2.649-14.922-4.324-.977-4.881,5.578-8.645-6.973Z" transform="translate(545.017 356.529)"/>
    <path id="Path_28" data-name="Path 28" class="cls-15" d="M97.12,216.729l-3.207,5.3,2.231,4.044-1.255,3.068,1.255,39.326,4.463,5.02,4.044-4.741L100.467,229,98.1,225.794l2.929-4.044Z" transform="translate(549.959 361.252)"/>
    <path id="Path_29" data-name="Path 29" class="cls-14" d="M86.851,194.459c-2.706,6.252-2.4,13.424-.979,20.087,1.547,7.24,4.58,14.5,10.315,19.188s14.634,6.012,20.542,1.551c3.52-2.655,5.507-6.868,6.847-11.069,2.664-8.359,3.207-17.7-.263-25.755C116.949,183.686,94.45,176.9,86.851,194.459Z" transform="translate(540.05 325.661)"/>
    <path id="Path_30" data-name="Path 30" class="cls-12" d="M122.56,242.482,76.584,257.324l-33.413-36.4,8.326-6.878L82.3,239.3l35.017-25,5.969,10.442Z" transform="translate(494.77 358.332)"/>
    <path id="Path_31" data-name="Path 31" class="cls-5" d="M40.65,221.284l3.535,5.5L59.9,217.748l-6.285-6.285Z" transform="translate(492.028 355.524)"/>
    <path id="Path_32" data-name="Path 32" class="cls-14" d="M83.459,194.9a5.319,5.319,0,0,0-2.741,5.428,11.753,11.753,0,0,0,2.729,5.806,10.087,10.087,0,0,0,2.568,2.5,8.3,8.3,0,0,0,3.3,1.077c1.42.188,3.092.038,3.923-1.129a4.578,4.578,0,0,0,.641-2.146c.432-3.555-.484-4.964-2.541-7.541C89.45,196.536,86.972,193.356,83.459,194.9Z" transform="translate(535.575 337.066)"/>
    <path id="Path_33" data-name="Path 33" class="cls-6" d="M93.321,206.831c-.3,3.712-2.054,7.507-5.311,9.313a21.554,21.554,0,0,1-4.144-10.937c-.534-4.852.257-10.006,3.092-13.979,3.236-4.534,8.82-7.014,14.376-7.417s11.1,1.067,16.252,3.179c2.236.917,5.1,1.85,6.8.138a11.814,11.814,0,0,1,1.372,5.463,7.422,7.422,0,0,1-1.083,4.165c-1.363,2.046-3.572,4.33-5.971,4.864-18.135,4.052-26.563-5.791-26.647-5.52-.3.969.286,2.18.511,3.165A25.191,25.191,0,0,1,93.321,206.831Z" transform="translate(538.862 325.376)"/>
    <path id="Path_34" data-name="Path 34" class="cls-16" d="M273.516,345.348l-5.152-100.363s-25.8-1.545-33.482-1.545c-4.184,0-11.33,1.985-16.97,3.793-5.3,1.7-9.7,1.547-12.277,6.482l-42.319,81.111,26,2.476,8.668-9.906-4.409-6.685,15.808-37.283-.255,63.157Z" transform="translate(625.445 390.304)"/>
    <path id="Path_35" data-name="Path 35" class="cls-17" d="M199.73,255.511l-28.052,50.68,8.735,10.232a15.428,15.428,0,0,0,6.925-.38l1.553-1.775-4.409-6.685L200.289,270.3Z" transform="translate(634.54 403.433)"/>
    <path id="Path_36" data-name="Path 36" class="cls-18" d="M211.918,285.364c-1.086-.361-9.772-5.43-16.286-5.43s-14.476,6.877-14.476,6.877-1.086,3.62,3.257,2.9,7.238-1.086,7.238-1.086-7.6,3.981-2.532,4.706,26.419,0,26.419,0Z" transform="translate(644.718 429.996)"/>
    <path id="Path_37" data-name="Path 37" class="cls-19" d="M238.623,292.78h-83.61v-6.129h83.61a3.065,3.065,0,0,1,3.065,3.065h0A3.065,3.065,0,0,1,238.623,292.78Z" transform="translate(616.414 437.302)"/>
    <path id="Path_38" data-name="Path 38" class="cls-20" d="M237.593,325.712H156.967a7.865,7.865,0,0,1-7.6-5.845l-14.229-53.613a7.864,7.864,0,0,1,7.6-9.881h70.4a7.861,7.861,0,0,1,7.6,5.845Z" transform="translate(594.505 404.37)"/>
    <path id="Path_39" data-name="Path 39" class="cls-21" d="M142.737,256.373a7.864,7.864,0,0,0-7.6,9.881l14.231,53.613a7.826,7.826,0,0,0,2.653,4.077l49.012-67.571Z" transform="translate(594.505 404.37)"/>
    <path id="Path_40" data-name="Path 40" class="cls-5" d="M168.221,278.553a4.834,4.834,0,0,1-4.916,6.332,8.805,8.805,0,0,1-8.113-6.332,4.834,4.834,0,0,1,4.914-6.332A8.806,8.806,0,0,1,168.221,278.553Z" transform="translate(616.396 421.607)"/>
    <path id="Path_41" data-name="Path 41" class="cls-18" d="M196.349,241.234c.724,1.447,5.791,21.352,5.791,21.352a6.421,6.421,0,0,0,6.152,2.9c4.342-.363,6.152-6.516,6.152-6.516l-7.6-24.972Z" transform="translate(661.373 380.03)"/>
    <path id="Path_42" data-name="Path 42" class="cls-18" d="M235.05,244.525c0,13.712-14.557,28.885-28.269,28.885S185.4,258.237,185.4,244.525a24.827,24.827,0,1,1,49.655,0Z" transform="translate(649.459 364.48)"/>
    <path id="Path_43" data-name="Path 43" class="cls-5" d="M199.765,246.063l-2.9,7.6,1.81,7.962,5.791-8.323,5.791,9.409,6.513-11.58-4.342-7.6s-2.171,5.067-6.877,6.152S199.765,246.063,199.765,246.063Z" transform="translate(661.938 390.4)"/>
    <path id="Path_44" data-name="Path 44" class="cls-20" d="M203.338,248.21,199,253.639l2.171,3.257-3.257,6.876.724,45.239,4.343,9.048,6.152-10.133-1.448-43.067-3.257-8.324,2.533-3.619Z" transform="translate(663.07 395.492)"/>
    <path id="Path_45" data-name="Path 45" class="cls-22" d="M233.723,254.211l1.571,79.351-37.318-.393Z" transform="translate(663.142 402.019)"/>
    <path id="Path_46" data-name="Path 46" class="cls-16" d="M229.848,244.18l3.443,74.788-34.563,7.042,4.714,9.035,49.473,2.877-6.758-73.971a22,22,0,0,0-12.169-17.726Z" transform="translate(663.96 391.108)"/>
    <path id="Path_47" data-name="Path 47" class="cls-5" d="M195.829,282.535l6.876.724,6.152,10.134-11.564.8Z" transform="translate(660.807 432.825)"/>
    <path id="Path_48" data-name="Path 48" class="cls-6" d="M211.192,298.751,150.02,314.312l31.123,122.344,10.733-5.367-9.123-105.173,54.734-17.171-31.659,18.244L206.363,427h9.66s26.83-97.66,29.513-97.66,47.757-30.05,47.757-30.05Z" transform="translate(610.983 450.462)"/>
    <path id="Path_49" data-name="Path 49" class="cls-6" d="M150.078,377.98l42.541-3.024,1.168-13.4L148.317,371.9Z" transform="translate(609.131 518.77)"/>
    <path id="Path_50" data-name="Path 50" class="cls-6" d="M165.7,387.012l8.586,1.073,24.147-9.122.537-18.781H189.31l-4.293,11.805L172,379.851Z" transform="translate(628.037 517.277)"/>
    <path id="Path_51" data-name="Path 51" class="cls-23" d="M185.76,237.35c-.973,1.783-1.967,3.862-1.242,5.76.883,2.317,3.768,3.027,6.232,3.317a98.62,98.62,0,0,0,12.826.662,39.42,39.42,0,0,0,8.465-.848c4.524-1.061,8.643-3.372,12.691-5.655,2.885-1.628,6.077-3.681,6.6-6.952.52-3.244-1.831-6.175-4.029-8.618a27.3,27.3,0,0,0-4.01-3.893c-3.672-2.7-8.547-3.4-13.048-2.676C199.066,220.248,190.977,227.781,185.76,237.35Z" transform="translate(648.234 362.828)"/>
    <path id="Path_52" data-name="Path 52" class="cls-23" d="M207.19,239.064a2.659,2.659,0,0,1,3.321-1.559,3.8,3.8,0,0,1,2.378,3.079,6.879,6.879,0,0,1-.775,3.958,9.165,9.165,0,0,0-.789,1.827,6.537,6.537,0,0,0-.113,1.666q.06,3.639.117,7.278c2-.762,3.173-2.8,4.182-4.691,2.213-4.152,4.491-8.576,4.232-13.273-.213-3.891-2.146-7.455-4.108-10.822a5.861,5.861,0,0,0-1.551-1.948,3.986,3.986,0,0,0-3.424-.37,11.777,11.777,0,0,0-3.121,1.7q-1.447.986-2.891,1.971a6.726,6.726,0,0,0-2.422,2.338c-.916,1.835.359,2.61,1.43,3.72C204.2,234.5,203.24,246.558,207.19,239.064Z" transform="translate(667.423 369.15)"/>
    <g id="Group_7" data-name="Group 7" transform="translate(829.543 616.218)">
      <path id="Path_53" data-name="Path 53" class="cls-3" d="M191.423,247.813c-3.282,0-6.946-2.789-8.165-6.219a5.274,5.274,0,0,1,.365-4.839,4.248,4.248,0,0,1,3.605-1.71c3.282,0,6.946,2.791,8.165,6.221a5.269,5.269,0,0,1-.365,4.837A4.247,4.247,0,0,1,191.423,247.813Zm-4.194-11.8a3.3,3.3,0,0,0-2.81,1.3,4.319,4.319,0,0,0-.244,3.95c1.094,3.073,4.344,5.574,7.248,5.574a3.3,3.3,0,0,0,2.81-1.3,4.314,4.314,0,0,0,.244-3.948C193.383,238.519,190.132,236.018,187.228,236.018Z" transform="translate(-182.851 -235.045)"/>
    </g>
    <g id="Group_8" data-name="Group 8" transform="translate(846.009 616.218)">
      <path id="Path_54" data-name="Path 54" class="cls-3" d="M199.309,247.813c-3.284,0-6.946-2.789-8.165-6.219a5.274,5.274,0,0,1,.365-4.839,4.247,4.247,0,0,1,3.605-1.71c3.282,0,6.946,2.791,8.165,6.221a5.269,5.269,0,0,1-.365,4.837A4.247,4.247,0,0,1,199.309,247.813Zm-4.194-11.8a3.3,3.3,0,0,0-2.81,1.3,4.319,4.319,0,0,0-.244,3.95c1.092,3.073,4.344,5.574,7.248,5.574a3.3,3.3,0,0,0,2.81-1.3,4.314,4.314,0,0,0,.244-3.948C201.27,238.519,198.019,236.018,195.115,236.018Z" transform="translate(-190.738 -235.045)"/>
    </g>
    <path id="Path_55" data-name="Path 55" class="cls-6" d="M240.18,219.943c.257,3.9,2.395,7.776,1.319,11.532-.883,3.079-3.754,5.278-4.639,8.355-1,3.493.766,7.119,2.486,10.321,1.436,2.678,3.449,5.722,6.49,5.737a8.544,8.544,0,0,0,3.762-1.2l8.678-4.353a14.064,14.064,0,0,0,3.53-2.234,13.721,13.721,0,0,0,3-5.413c2.225-6.131,4.217-12.553,3.7-19.052s-4.067-13.146-10.127-15.559c-3.39-1.351-13.313-2.553-16.225.349-1.3,1.292-.649,2.668-.812,4.315C241.1,215.215,240.013,217.386,240.18,219.943Z" transform="translate(705.117 350.28)"/>
    <path id="Path_56" data-name="Path 56" class="cls-14" d="M257.422,222.341l-2.956.808c-12.288,8-19.478,19.112-21.027,33.692l-6.261,101.43,9.417-4.213Z" transform="translate(694.904 367.355)"/>
    <path id="Path_57" data-name="Path 57" class="cls-20" d="M310.966,223.044,260.792,221c-4.24-.171-11.705,1.338-15.768,2.557l-6.394,2.983,11.259,53.748h0a106.79,106.79,0,0,0-14.764,57.464l5.956,73.289h56.239l7.163-77.3a106.813,106.813,0,0,0-8.553-46.149l-3.06-7.14Z" transform="translate(703.494 365.882)"/>
    <path id="Path_58" data-name="Path 58" class="cls-24" d="M243.917,247.626a14.435,14.435,0,0,0,17.058,7.829,36.252,36.252,0,0,0,10.676-4.564c6.042-3.545,11.791-7.768,16.188-13.221,3.09-3.833,5.488-9.294,2.979-13.532-1.61-2.714-4.785-4.058-7.833-4.877C266.7,214.886,231.475,224.168,243.917,247.626Z" transform="translate(710.272 362.865)"/>
    <path id="Path_59" data-name="Path 59" class="cls-14" d="M286.243,222.011c0,13.336-14.221,31.442-27.555,31.442s-20.737-18.106-20.737-31.442a24.146,24.146,0,0,1,48.291,0Z" transform="translate(706.622 340.736)"/>
    <path id="Path_60" data-name="Path 60" class="cls-14" d="M278.538,221.972l34.8,45.362a10.089,10.089,0,0,1-2.739,14.747l-40.684,24.891-5.025-7.845,27.91-22.375a4.959,4.959,0,0,0,.981-6.685l-21.167-30Z" transform="translate(735.922 366.954)"/>
    <path id="Path_61" data-name="Path 61" class="cls-14" d="M217.958,294.122h21.849a6.66,6.66,0,0,0,6.643-6.194l.173-2.493Z" transform="translate(684.876 435.979)"/>
    <path id="Path_62" data-name="Path 62" class="cls-14" d="M246.408,219.932c-.324-.806,5.768,15.935,5.768,15.935s1.374,6.866,7.144,5.219,2.2-26.1,1.374-26.373S246.958,221.306,246.408,219.932Z" transform="translate(715.806 359.05)"/>
    <path id="Path_63" data-name="Path 63" class="cls-6" d="M272.017,219.143c-11.177,6.8-22.937,13.8-36,14.595,2.937-3.645,2.349-8.858,2.887-13.509A25.63,25.63,0,0,1,272.884,199a14.183,14.183,0,0,1,6.985,4.756C284.675,210.467,277.207,215.985,272.017,219.143Z" transform="translate(704.521 340.431)"/>
    <path id="Path_64" data-name="Path 64" class="cls-6" d="M253.825,242.7c.747,3.589,3.025,6.768,3.434,10.411a20.927,20.927,0,0,1-.823,7.048l-1.964,8.394A25.076,25.076,0,0,0,265,263.279a40.909,40.909,0,0,0,14.507-38.216,65.7,65.7,0,0,0-3.447-11.726,29.332,29.332,0,0,0-4.3-8.355,11.1,11.1,0,0,0-8.014-4.409c-3.758-.1-7.177,2.382-9.382,5.428a12.014,12.014,0,0,0-2.551,7.115c.05,2.564.946,11.286,3.294,12.313a6.137,6.137,0,0,1,8.576,3.075c1.816,5.177-2.818,6.169-5.91,7.941C253.932,238.651,252.992,238.691,253.825,242.7Z" transform="translate(721.698 343.676)"/>
    <path id="Path_65" data-name="Path 65" class="cls-6" d="M279.5,216.515c2.367,1.781,5.071,3.142,7.154,5.246s3.472,5.3,2.37,8.048c-.7,1.731-2.223,2.956-3.541,4.276s-2.536,3.025-2.326,4.877a7.922,7.922,0,0,0,1.568,3.315c1.777,2.691,3.311,5.841,2.783,9.023a8.757,8.757,0,0,1-4.484,6.052,12.139,12.139,0,0,1-7.564,1.2,24.214,24.214,0,0,0-4.476-.595c-3.975.171-7.1,3.766-11.054,4.23a7.286,7.286,0,0,1-8.031-8.47c.624-3.639,3.808-6.2,6.741-8.445s6.063-4.921,6.5-8.586c.322-2.737-.967-5.478-.63-8.213.482-3.921,4.127-6.793,5-10.645.5-2.19-.3-7.724,3.134-7.653C275.264,210.229,277.55,215.051,279.5,216.515Z" transform="translate(721.678 354.122)"/>
    <path id="Path_66" data-name="Path 66" class="cls-6" d="M254.542,214.823a29.693,29.693,0,0,1-2.511,3.739l-3.8,5.092a27.513,27.513,0,0,0,.9-10.062,4.665,4.665,0,0,1,.01-1.543,4.015,4.015,0,0,1,1.9-2.152c1.165-.772,4.159-3.267,5.344-1.662C257.306,209.493,255.166,213.652,254.542,214.823Z" transform="translate(717.797 351.438)"/>
    <path id="Path_67" data-name="Path 67" class="cls-6" d="M266.549,255.4l-2.3,2.04,7.985,9.336Z" transform="translate(735.226 403.307)"/>
    <path id="Path_68" data-name="Path 68" class="cls-25" d="M404.026,347.377l-5.152-100.363s-25.8-5.438-33.482-5.438c-4.184,0-11.33,1.985-16.97,3.793a21.148,21.148,0,0,0-12.277,10.376l-42.319,81.111,26,2.476,8.668-9.906-4.409-6.685,15.808-37.283-.255,63.157Z" transform="translate(767.393 388.275)"/>
    <path id="Path_69" data-name="Path 69" class="cls-14" d="M370.385,243.2a24.827,24.827,0,0,1-24.826,24.828c-7.589,0-12.854-7.879-17.409-13.244-3.672-4.33-6.568-5.553-6.568-11.676,0-13.712,10.265-24.734,23.977-24.734A24.826,24.826,0,0,1,370.385,243.2Z" transform="translate(797.581 363.04)"/>
    <path id="Path_70" data-name="Path 70" class="cls-6" d="M369.329,325.712H282.655l-18.4-69.339h86.674Z" transform="translate(735.226 404.37)"/>
    <path id="Path_71" data-name="Path 71" class="cls-5" d="M368.133,326.775H284.164L265.352,255.4l84.951,2.04Z" transform="translate(736.423 403.307)"/>
    <rect id="Rectangle_6" data-name="Rectangle 6" class="cls-6" width="59.427" height="5.025" transform="translate(1018.584 725.057)"/>
    <path id="Path_72" data-name="Path 72" class="cls-26" d="M345.246,320.146l33.21-15.868-2.745-53.525-5.745.349-43.045,45.177s-6.422,16.76-11.1,29.96l-.05,12.394,44.636-.858Z" transform="translate(791.261 398.258)"/>
    <path id="Path_73" data-name="Path 73" class="cls-20" d="M333.025,302.393H286.771l-10.362-39.319,46.8,1.124Z" transform="translate(748.449 411.659)"/>
    <path id="Path_74" data-name="Path 74" class="cls-15" d="M341.7,298.751l-61.172,15.561,31.122,122.344,10.733-5.367-9.123-105.173L368,308.945l-31.659,18.244L336.874,427h9.657s26.83-97.66,29.513-97.66,47.759-30.05,47.759-30.05Z" transform="translate(752.933 450.462)"/>
    <path id="Path_75" data-name="Path 75" class="cls-6" d="M280.589,377.98l42.541-3.024,1.168-13.4L278.828,371.9Z" transform="translate(751.08 518.77)"/>
    <path id="Path_76" data-name="Path 76" class="cls-3" d="M325.6,250.4a67.5,67.5,0,0,0,2.687,14.2,5.242,5.242,0,0,0,1.52,2.743c1.72,1.344,4.217.215,6.008-1.033a42.26,42.26,0,0,0,8.451-7.626,14.919,14.919,0,0,0,3.424-6.4,7.09,7.09,0,0,0-1.954-6.72c-2.862-2.47-9.023-2.38-12.624-2.463C328.045,242.983,325.179,245.076,325.6,250.4Z" transform="translate(801.909 389.93)"/>
    <path id="Path_77" data-name="Path 77" class="cls-6" d="M296.21,387.012l8.586,1.073,24.147-9.122.537-18.781H319.82l-4.293,11.805-13.016,7.863Z" transform="translate(769.986 517.277)"/>
    <path id="Path_78" data-name="Path 78" class="cls-14" d="M329.546,237.408l-1.835,20.929s1.47,8.812,6.609,7.342,5.875-5.507,5.875-5.507l2.2-24.966Z" transform="translate(804.248 381.348)"/>
    <path id="Path_79" data-name="Path 79" class="cls-23" d="M354.839,236.913c3.908-.157,7.929-.428,11.455-2.123s6.474-5.161,6.409-9.073-4.1-7.6-7.82-6.388c-.85.276-1.624.766-2.493.969a8.119,8.119,0,0,1-4.088-.489c-10.037-2.96-21.269-4.929-30.642-.273a9.52,9.52,0,0,0-4.361,3.735,11.457,11.457,0,0,0-1.019,4.4q-.557,6.081-.733,12.19c2.714-1.47,5.409-3.219,8.232-4.463,2.758-1.217,4.526-.015,7.459.595C343.014,237.189,348.972,237.147,354.839,236.913Z" transform="translate(797.543 361.282)"/>
    <path id="Path_80" data-name="Path 80" class="cls-27" d="M331.873,223.3a9,9,0,0,0-7.25,2.015,24.641,24.641,0,0,0-3.4,10.532,20.679,20.679,0,0,1,.5,3.989,10.531,10.531,0,0,0,.841,3.461c1.426,2.15,3.71,3.605,5.969,6.269.094.109.188.223.28.334,2.4-4.152,6.319-13.626,7.052-14.58,1.119-1.455,4.729-5.835,4.077-7.776C339.322,225.682,333.654,223.626,331.873,223.3Z" transform="translate(797.194 368.257)"/>
    <path id="Path_81" data-name="Path 81" class="cls-14" d="M330.23,228.575a2.288,2.288,0,0,0-.7-.743,2.448,2.448,0,0,0-1.227-.215c-1.633,0-3.514.117-4.495,1.422a4.583,4.583,0,0,0-.733,1.923,16.9,16.9,0,0,0-.228,4.929c.257,2.524,1.472,5.359,3.944,5.929a4.777,4.777,0,0,0,4.167-1.276C334.846,237.011,332.771,232.327,330.23,228.575Z" transform="translate(798.868 373.094)"/>
    <path id="Path_82" data-name="Path 82" class="cls-23" d="M358,238.873a8.57,8.57,0,0,1,3.873-.261,3.16,3.16,0,0,1,2.551,2.618,8.333,8.333,0,0,1-.282,1.885c-.328,1.954.453,3.9,1.134,5.76,1.486,4.063,2.468,8.912,0,12.467-2.319,3.344-6.881,4.273-10.945,4.088a30.62,30.62,0,0,1-27.043-20.67,20.3,20.3,0,0,1-.4-12.413c.4-1.215,1.432-2.612,2.639-2.192a15.189,15.189,0,0,0,7.931,11.062C344.866,245.033,350.863,240.537,358,238.873Z" transform="translate(802.485 375.771)"/>
    <g id="Path_83" data-name="Path 83" class="cls-28" transform="translate(736.423 403.307)">
      <path class="cls-37" d="M 367.4877319335938 326.2746887207031 L 284.5490112304688 326.2746887207031 L 266.0046997070313 255.9115447998047 L 349.9130249023438 257.9261169433594 L 367.4877319335938 326.2746887207031 Z"/>
      <path class="cls-38" d="M 366.8429260253906 325.7746887207031 L 349.52294921875 258.4168701171875 L 266.65771484375 256.4273681640625 L 284.9342956542969 325.7746887207031 L 366.8429260253906 325.7746887207031 M 368.132568359375 326.7746887207031 L 284.1636962890625 326.7746887207031 L 265.3516845703125 255.3957214355469 L 350.3031005859375 257.4353332519531 L 368.132568359375 326.7746887207031 Z"/>
    </g>
    <path id="Path_84" data-name="Path 84" class="cls-5" d="M392.6,292.2H273.4V287.18H392.6a2.513,2.513,0,0,1,2.511,2.511h0A2.513,2.513,0,0,1,392.6,292.2Z" transform="translate(745.18 437.877)"/>
    <path id="Path_85" data-name="Path 85" class="cls-19" d="M332.264,292.2H273.4V287.18h58.861a2.513,2.513,0,0,1,2.514,2.511h0A2.513,2.513,0,0,1,332.264,292.2Z" transform="translate(745.18 437.877)"/>
    <path id="Path_86" data-name="Path 86" class="cls-25" d="M384.243,244.18l-21.676,57.31-55.289,7.361,2.177,11.056,70.752-2.309,19.108-50.387a11.974,11.974,0,0,0,.347-7.762,22.011,22.011,0,0,0-11.28-13.225Z" transform="translate(782.024 391.108)"/>
    <path id="Path_87" data-name="Path 87" class="cls-14" d="M323.09,283.457l-29.818-15.929a3.228,3.228,0,0,0,.756,4.336c2.357,1.964,9.9,7.549,9.9,7.549v4.338c2.491,8.142,10.179,11.987,18.641,11.058l2.7-.3Z" transform="translate(766.212 416.503)"/>
    <path id="Path_88" data-name="Path 88" class="cls-29" d="M384.056,294.636H348.449s-1.033-2.58,4.643-3.612,21.676-1.549,21.676-1.549l4.127-4.643,5.678,1.547Z" transform="translate(826.723 435.323)"/>
    <path id="Path_89" data-name="Path 89" class="cls-30" d="M399.242,242.234,361.3,344.632l9.365,2.342,58.3-99.787s-1.672-6.465-11.578-12.655S399.242,242.234,399.242,242.234Z" transform="translate(840.775 378.886)"/>
    <path id="Path_90" data-name="Path 90" class="cls-18" d="M403.887,220.872a24.843,24.843,0,0,0-34.319-7.509A26,26,0,0,0,358.2,232.51c-.38,3.848-.4,5.194,1.161,8.747,1.585,3.607,5.939,8.538,3.443,15.7-.582,1.676-.1,4.244,1.86,5.025s3.66-1.338,5.545-1.424c3.582-.163,10.618,5.321,13.179,7.48a7.587,7.587,0,0,0,3.706,2.071,6.128,6.128,0,0,0,3.526-.856c5.451-2.829,8.772-8.482,11.5-13.987,2.547-5.15,4.845-10.6,5.23-16.3A24.735,24.735,0,0,0,403.887,220.872Z" transform="translate(837.174 353.316)"/>
    <path id="Path_91" data-name="Path 91" class="cls-18" d="M388.447,256.975c1.05,1.077,2.363,2.215,3.85,1.994a4.513,4.513,0,0,0,1.86-.881,28.453,28.453,0,0,0,4.213-3.591,4.569,4.569,0,0,0,1.572-2.885,4.355,4.355,0,0,0-.476-1.82c-2.511-5.657-7.664-9.966-9.48-15.883-.825-2.683-.91-5.557-1.833-8.209s-3.056-5.209-5.86-5.319a7.392,7.392,0,0,0-4.557,1.729,16.286,16.286,0,0,0-6.369,14.144,16.637,16.637,0,0,0,7.217,12.108A62.48,62.48,0,0,1,388.447,256.975Z" transform="translate(851.672 365.22)"/>
    <path id="Path_92" data-name="Path 92" class="cls-23" d="M368.674,213.362a25.251,25.251,0,0,0-9.868,12.71c4.76,2.351,16.908-2.877,20.206-4.87a23.71,23.71,0,0,0,11.361,20.979c4.363,2.582,9.509,3.71,13.875,6.219a33.491,33.491,0,0,0,2.2-9.434,24.817,24.817,0,0,0-37.776-25.6Z" transform="translate(838.068 353.316)"/>
    <path id="Path_93" data-name="Path 93" class="cls-18" d="M370.2,227.579c-1.4-2.574-.006-6.123,2.62-7.426a7.3,7.3,0,0,1,8.092,1.553,10.306,10.306,0,0,1,2.768,8.056c-.259,3.693-2.948,7.678-6.645,7.488a6.708,6.708,0,0,1-4.973-3.165,19.858,19.858,0,0,1-2.3-5.639" transform="translate(849.858 364.288)"/>
    <path id="Path_94" data-name="Path 94" class="cls-5" d="M395.568,236.05l-7.079-8.221L377.3,248.381l4.11,13.016,14.843-16.669Z" transform="translate(858.182 373.325)"/>
    <path id="Path_95" data-name="Path 95" class="cls-15" d="M403.332,233.618l66.437,73.951L429.086,343.3l-49.828-76.55c-5.09-7.33,2.7-23.5,7.785-30.834h0A11.206,11.206,0,0,1,403.332,233.618Z" transform="translate(858.509 376.877)"/>
    <path id="Path_96" data-name="Path 96" class="cls-31" d="M440.643,494.493,422.785,393.846l-20.523-90.389,40.683-35.73-2.327,124.988,9.931,96.825Z" transform="translate(885.333 416.719)"/>
    <path id="Path_97" data-name="Path 97" class="cls-6" d="M444.493,267.727,411,497.7l-10.164-1.648,2.972-192.591Z" transform="translate(883.784 416.719)"/>
    <path id="Path_98" data-name="Path 98" class="cls-6" d="M394.607,386.766l26.835-1.032,1.548-8.257-7.741-1.032-25.8,7.225.516,3.612Z" transform="translate(871.393 534.965)"/>
    <path id="Path_99" data-name="Path 99" class="cls-31" d="M441.3,374.8l.776,7.769-31.044,1.923-.275-2.472,27.472-8.791Z" transform="translate(894.577 531.463)"/>
    <path id="Path_100" data-name="Path 100" class="cls-18" d="M377.7,294.636H342.093s-1.033-2.58,4.643-3.612,22.9-1.42,22.9-1.42l2.9-4.772,7.768,2.973Z" transform="translate(819.81 435.323)"/>
    <path id="Path_101" data-name="Path 101" class="cls-15" d="M414.349,237.794l-27.018,51-32.392,56.588,10.536.39,28.878-39.807,38.239-48.872a13.325,13.325,0,0,0,3.624-16.388h0A13.327,13.327,0,0,0,414.349,237.794Z" transform="translate(833.862 379.311)"/>
    <path id="Path_102" data-name="Path 102" class="cls-32" d="M398.867,289.387c-.745-10.357-4.39-42.58-4.39-42.58l-11.131,18.734Z" transform="translate(864.757 393.966)"/>
    <path id="Path_103" data-name="Path 103" class="cls-14" d="M265.183,307.84c-1.816,0-16.359,6.058-16.359,6.058l11.363,93.295c-2.576,1.213-6.15,1.925-8.57,2.616-5.58,1.6-10.582,2.173-15.511,5.459-.4.284-.522,1.7-.595,2.186-.161,1.069,1.294,1.543,2.374,1.591q10.1.442,20.21.088c4.294-.15,7.8-2.342,11.626-4.3,2.219-1.14,3.065-4.516,2.937-6.1C272.621,408.251,266.9,307.84,265.183,307.84Z" transform="translate(703.954 460.348)"/>
    <path id="Path_104" data-name="Path 104" class="cls-6" d="M254.057,363.432c6.486-.6,15.215-3.495,20.271-7.6.451,4.3-.816,8.436-9.008,10.536-9.459,2.426-19.588,5.115-28.951,2.338-1-.3-2.152-.927-2.127-1.971a2.306,2.306,0,0,1,.56-1.273c1.666-2.221,6.593-6.184,9.518-5.217,1.522.5,2.614,2.261,4.344,2.791A14.2,14.2,0,0,0,254.057,363.432Z" transform="translate(702.585 512.547)"/>
    <path id="Path_105" data-name="Path 105" class="cls-14" d="M249.693,361.108" transform="translate(719.392 518.284)"/>
    <path id="Path_106" data-name="Path 106" class="cls-14" d="M278.77,408.732c-.04-.48-5.76-100.892-7.478-100.892-1.816,0-16.359,6.058-16.359,6.058L266.3,407.193c1.912,5.031,3.551,9.829,6.342,14.432a29.819,29.819,0,0,0,11.292,11.259,1.648,1.648,0,0,0,1.643.182,1.474,1.474,0,0,0,.5-.848c.8-2.766-.378-5.68-1.534-8.321C282.427,419.082,279.185,413.974,278.77,408.732Z" transform="translate(725.091 460.348)"/>
    <path id="Path_107" data-name="Path 107" class="cls-6" d="M263.7,368.716c2.9,5.374,6.463,10.854,12.027,13.365a5.012,5.012,0,0,0,3.021.555,3.855,3.855,0,0,0,2.739-2.9,8.377,8.377,0,0,0-.23-4.156,21.079,21.079,0,0,0-2.507-5.81,1.8,1.8,0,0,0-1.1-.96c-.639-.1-1.165.453-1.689.831a4.794,4.794,0,0,1-5.042-.025,12.452,12.452,0,0,1-3.733-3.739c-2.111-2.9-3.987-8.238-6.918-9.91C259.352,360.318,261.659,364.934,263.7,368.716Z" transform="translate(730.665 512.688)"/>
    <circle id="Ellipse_4" data-name="Ellipse 4" class="cls-6" cx="6.943" cy="6.943" r="6.943" transform="translate(827.96 889.58)"/>
    <circle id="Ellipse_5" data-name="Ellipse 5" class="cls-6" cx="6.943" cy="6.943" r="6.943" transform="translate(911.526 889.58)"/>
    <path id="Path_108" data-name="Path 108" class="cls-6" d="M215.145,372.931a6.942,6.942,0,1,1-6.941-6.943A6.942,6.942,0,0,1,215.145,372.931Z" transform="translate(666.714 523.592)"/>
    <path id="Path_109" data-name="Path 109" class="cls-33" d="M185.419,415.62v-3.6a14.552,14.552,0,0,1,14.551-14.553h27.31V326.739" transform="translate(649.485 480.903)"/>
    <path id="Path_110" data-name="Path 110" class="cls-33" d="M246.889,415.62v-3.6a14.553,14.553,0,0,0-14.553-14.553H205.025V326.739" transform="translate(670.809 480.903)"/>
    <line id="Line_1" data-name="Line 1" class="cls-34" y1="18.152" transform="translate(874.917 878.371)"/>
    <rect id="Rectangle_7" data-name="Rectangle 7" class="cls-6" width="15.405" height="35.123" transform="translate(867.523 842.631)"/>
    <rect id="Rectangle_8" data-name="Rectangle 8" class="cls-6" width="9.859" height="39.918" transform="translate(869.987 808.259)"/>
    <circle id="Ellipse_6" data-name="Ellipse 6" class="cls-6" cx="6.943" cy="6.943" r="6.943" transform="translate(1094.28 889.58)"/>
    <circle id="Ellipse_7" data-name="Ellipse 7" class="cls-6" cx="6.943" cy="6.943" r="6.943" transform="translate(1177.846 889.58)"/>
    <circle id="Ellipse_8" data-name="Ellipse 8" class="cls-6" cx="6.943" cy="6.943" r="6.943" transform="translate(1134.294 889.58)"/>
    <path id="Path_111" data-name="Path 111" class="cls-33" d="M312.988,415.62v-3.6a14.553,14.553,0,0,1,14.553-14.553h27.31V326.739" transform="translate(788.234 480.903)"/>
    <path id="Path_112" data-name="Path 112" class="cls-33" d="M374.458,415.62v-3.6a14.553,14.553,0,0,0-14.553-14.553H332.6V326.739" transform="translate(809.56 480.903)"/>
    <line id="Line_2" data-name="Line 2" class="cls-34" y1="18.152" transform="translate(1141.237 878.371)"/>
    <rect id="Rectangle_9" data-name="Rectangle 9" class="cls-6" width="15.405" height="35.123" transform="translate(1133.843 842.631)"/>
    <rect id="Rectangle_10" data-name="Rectangle 10" class="cls-6" width="9.859" height="39.918" transform="translate(1136.308 808.259)"/>
    <rect id="Rectangle_11" data-name="Rectangle 11" class="cls-35" width="476.709" height="75.53" transform="translate(723.137 737.511)"/>
    <rect id="Rectangle_12" data-name="Rectangle 12" class="cls-6" width="8.024" height="192.566" transform="translate(723.821 738.105)"/>
    <rect id="Rectangle_13" data-name="Rectangle 13" class="cls-6" width="8.023" height="192.566" transform="translate(1197.211 738.105)"/>
    <path id="Path_113" data-name="Path 113" class="cls-36" d="M614.246,337.491,131.6,293.379H614.246Z" transform="translate(590.953 444.619)"/>
    <rect id="Rectangle_14" data-name="Rectangle 14" class="cls-12" width="518.322" height="12.838" transform="translate(704.564 730.082)"/>
  </g>
</svg>
