<svg xmlns="http://www.w3.org/2000/svg" viewBox="0 0 73.543 73.664">
  <defs>
    <style>
      .cls-1 {
        fill: #00e5ad;
      }

      .cls-2 {
        fill: #fff;
      }
    </style>
  </defs>
  <g id="Group_52" data-name="Group 52" transform="translate(-140 0.309)">
    <path id="Path_217" data-name="Path 217" class="cls-1" d="M36.771,0H73.664V73.543H36.771A36.771,36.771,0,0,1,36.771,0Z" transform="translate(140 73.354) rotate(-90)"/>
    <path id="logo-branco" class="cls-2" d="M1059.171-544.931h0a21.862,21.862,0,0,0-8.226-1.6A21.955,21.955,0,0,0,1029-524.583a21.921,21.921,0,0,0,9.025,17.735h0v5.715a44.814,44.814,0,0,0,4.412-3.218h0a21.854,21.854,0,0,0,8.508,1.713,21.955,21.955,0,0,0,21.944-21.945,21.92,21.92,0,0,0-8.978-17.7h0V-548A29.235,29.235,0,0,0,1059.171-544.931Zm0,0h0a21.916,21.916,0,0,1,4.741,2.648v34.943h-7.742v-12.445h-10.4v10.735q0,1.88-3.33,4.7h0a21.91,21.91,0,0,1-4.412-2.5h0v-34.408h7.742v13.727h10.4v-12.635q0-2.293,3-4.769Z" transform="translate(-873.887 558.155)"/>
  </g>
</svg>
